<svg xmlns="http://www.w3.org/2000/svg" viewBox="0 0 500 500"><g id="freepik--Shadow--inject-90"><ellipse id="freepik--path--inject-90" cx="250" cy="416.24" rx="193.89" ry="11.32" style="fill:#f5f5f5"></ellipse></g><g id="freepik--Plant--inject-90"><path d="M90.69,337.15c.21,1.47-3.78,2.43-7,3,.26,2.67,2,5.36,4.49,7.88,3.09-1.74,7.49-4,8.3-3.47s-3.62,3.53-6.44,5.24a58,58,0,0,0,6.39,4.84c1.38-1.29,3-2.42,4-1.81s.73,2.63.23,4.42c3.36,2,5.87,3.15,5.87,3.15a67.5,67.5,0,0,0,2.24-9.53c-.16-.34-.33-.68-.49-1-.54-1.25,0-1.79.88-2a33.62,33.62,0,0,0,.06-6.87c-3.8-.79-8.42-2.27-6.69-4.55,1-1.37,3-1.53,4.94-1.18a8.61,8.61,0,0,0-.94-1.28c-6.91-7.62-11.73,0-11.73,0-4-3.35-9.67-2.44-10.89,2.79C86.11,336.19,90.43,335.33,90.69,337.15Z" style="fill:#263238"></path><path d="M90.69,337.15c.21,1.47-3.78,2.43-7,3,.26,2.67,2,5.36,4.49,7.88,3.09-1.74,7.49-4,8.3-3.47s-3.62,3.53-6.44,5.24a58,58,0,0,0,6.39,4.84c1.38-1.29,3-2.42,4-1.81s.73,2.63.23,4.42c3.36,2,5.87,3.15,5.87,3.15a67.5,67.5,0,0,0,2.24-9.53c-.16-.34-.33-.68-.49-1-.54-1.25,0-1.79.88-2a33.62,33.62,0,0,0,.06-6.87c-3.8-.79-8.42-2.27-6.69-4.55,1-1.37,3-1.53,4.94-1.18a8.61,8.61,0,0,0-.94-1.28c-6.91-7.62-11.73,0-11.73,0-4-3.35-9.67-2.44-10.89,2.79C86.11,336.19,90.43,335.33,90.69,337.15Z" style="fill:#fff;isolation:isolate;opacity:0.30000000000000004"></path><path d="M99.31,393.13l-1-.08c0-.51,4.09-51.52-7.36-56.33a3.88,3.88,0,0,0-3.47.08C83.36,339,81.37,347.89,81.35,348l-1-.22c.08-.38,2.1-9.47,6.65-11.84a4.89,4.89,0,0,1,4.32-.12C103.46,340.88,99.49,391,99.31,393.13Z" style="fill:#263238"></path><path d="M100.76,392c-.21-2.3-4.88-56.27,3.86-62,2.09-1.37,4-1.67,5.55-.86,4.13,2.08,4.67,10.91,4.69,11.28l-1,.06c0-.09-.53-8.63-4.14-10.45-1.25-.63-2.78-.36-4.55.81-8.24,5.4-3.47,60.51-3.42,61.07Z" style="fill:#263238"></path><path d="M102.07,396.39c-.06-1.76-1.5-43.07,6.45-46.69a5.61,5.61,0,0,1,4.74,0c5.46,2.4,8.83,12.57,9,13l-1,.31c0-.1-3.38-10.18-8.43-12.4a4.54,4.54,0,0,0-3.91,0c-6.1,2.78-6.31,34-5.87,45.74Z" style="fill:#263238"></path><path d="M100.05,394.5l-1-.11c1.4-12.3,4.09-45.06-.29-49a1.73,1.73,0,0,0-1.8-.56C94,346,92.24,356.65,91.8,360.66l-1-.11c.17-1.54,1.77-15.07,5.8-16.62a2.66,2.66,0,0,1,2.81.74C105.08,349.72,100.25,392.67,100.05,394.5Z" style="fill:#263238"></path><polygon points="83.36 371.19 119.28 371.19 116.28 411.43 86.36 411.43 83.36 371.19" style="fill:#FFCC00"></polygon><polygon points="94.27 371.19 95.27 411.43 116.28 411.43 119.28 371.19 94.27 371.19" style="fill:#fff;isolation:isolate;opacity:0.2"></polygon><path d="M88.25,356.42c-.37,1-3.16.21-5.35-.57-.76,1.74-.58,4,.06,6.41,2.5,0,6,.07,6.32.7s-3.45.93-5.78,1a41.47,41.47,0,0,0,2.28,5.18c1.3-.32,2.69-.47,3.07.24s-.45,1.88-1.37,2.81c1.4,2.35,2.54,4,2.54,4a46.9,46.9,0,0,0,4.65-5.11c0-.26,0-.53,0-.8.1-1,.61-1.11,1.22-.91a23.57,23.57,0,0,0,2.38-4.21c-2.07-1.8-4.41-4.29-2.56-5.1,1.11-.49,2.35.07,3.45,1a5.11,5.11,0,0,0-.14-1.11c-1.65-7.07-7.24-4-7.24-4-1.33-3.45-5.12-4.82-7.66-2C85.76,354.26,88.71,355.21,88.25,356.42Z" style="fill:#263238"></path><path d="M88.25,356.42c-.37,1-3.16.21-5.35-.57-.76,1.74-.58,4,.06,6.41,2.5,0,6,.07,6.32.7s-3.45.93-5.78,1a41.47,41.47,0,0,0,2.28,5.18c1.3-.32,2.69-.47,3.07.24s-.45,1.88-1.37,2.81c1.4,2.35,2.54,4,2.54,4a46.9,46.9,0,0,0,4.65-5.11c0-.26,0-.53,0-.8.1-1,.61-1.11,1.22-.91a23.57,23.57,0,0,0,2.38-4.21c-2.07-1.8-4.41-4.29-2.56-5.1,1.11-.49,2.35.07,3.45,1a5.11,5.11,0,0,0-.14-1.11c-1.65-7.07-7.24-4-7.24-4-1.33-3.45-5.12-4.82-7.66-2C85.76,354.26,88.71,355.21,88.25,356.42Z" style="fill:#fff;isolation:isolate;opacity:0.30000000000000004"></path><path d="M114.93,361.2a13.57,13.57,0,0,0-3.29.69,7.93,7.93,0,0,1-.48-2.38c-.23-7.24,5-4.19,7.7-6.32a5.91,5.91,0,0,1,4.59-1.43,8.44,8.44,0,0,0-.62,1.24,1.14,1.14,0,0,0,.87,1.55,3.4,3.4,0,0,0,2-.24,3.77,3.77,0,0,0,.52-.37,10.35,10.35,0,0,1,1,2.43,13.42,13.42,0,0,1,.46,3.1,11,11,0,0,0-1.21.34,1.13,1.13,0,0,0-.45,1.72,5.45,5.45,0,0,0,1.49,1.05,16.52,16.52,0,0,1-.91,3.4l-.37,0a7.44,7.44,0,0,0-.78.2,3.12,3.12,0,0,0-.43.15,1.16,1.16,0,0,0-.68.88,1.12,1.12,0,0,0,.43,1.05,3.71,3.71,0,0,0,.54.33,8.12,8.12,0,0,1-2.87,2.9,29.51,29.51,0,0,1-3.06-1.62c.22-.29.44-.58.64-.88a1.69,1.69,0,0,0,.31-1.13,1.53,1.53,0,0,0-1.73-1.33,1.52,1.52,0,0,0-1,.58c-.24.36-.51.7-.77,1a19.11,19.11,0,0,1-3.68-3.57l.11,0a10.87,10.87,0,0,1,2-.34,1.54,1.54,0,0,0-.39-3.06Z" style="fill:#263238"></path><path d="M114.93,361.2a13.57,13.57,0,0,0-3.29.69,7.93,7.93,0,0,1-.48-2.38c-.23-7.24,5-4.19,7.7-6.32a5.91,5.91,0,0,1,4.59-1.43,8.44,8.44,0,0,0-.62,1.24,1.14,1.14,0,0,0,.87,1.55,3.4,3.4,0,0,0,2-.24,3.77,3.77,0,0,0,.52-.37,10.35,10.35,0,0,1,1,2.43,13.42,13.42,0,0,1,.46,3.1,11,11,0,0,0-1.21.34,1.13,1.13,0,0,0-.45,1.72,5.45,5.45,0,0,0,1.49,1.05,16.52,16.52,0,0,1-.91,3.4l-.37,0a7.44,7.44,0,0,0-.78.2,3.12,3.12,0,0,0-.43.15,1.16,1.16,0,0,0-.68.88,1.12,1.12,0,0,0,.43,1.05,3.71,3.71,0,0,0,.54.33,8.12,8.12,0,0,1-2.87,2.9,29.51,29.51,0,0,1-3.06-1.62c.22-.29.44-.58.64-.88a1.69,1.69,0,0,0,.31-1.13,1.53,1.53,0,0,0-1.73-1.33,1.52,1.52,0,0,0-1,.58c-.24.36-.51.7-.77,1a19.11,19.11,0,0,1-3.68-3.57l.11,0a10.87,10.87,0,0,1,2-.34,1.54,1.54,0,0,0-.39-3.06Z" style="fill:#fff;isolation:isolate;opacity:0.5"></path><path d="M117,336.22a9.43,9.43,0,0,1,2-1.08,5.31,5.31,0,0,0-.79-1.46c-3.06-3.91-4.44,0-6.82.06a4,4,0,0,0-3,1.26,5.59,5.59,0,0,1,.87.38.77.77,0,0,1,.22,1.2,2.26,2.26,0,0,1-1.17.76,2.18,2.18,0,0,1-.44,0,7.53,7.53,0,0,0,.54,1.71,9.55,9.55,0,0,0,1.12,1.83,6.86,6.86,0,0,1,.78-.35.78.78,0,0,1,1,.71,3.51,3.51,0,0,1-.33,1.2,11.75,11.75,0,0,0,2,1.39l.22-.13c.16-.09.33-.17.5-.25a1.32,1.32,0,0,1,.3-.1.8.8,0,0,1,.74.16.79.79,0,0,1,.23.74,2,2,0,0,1-.14.41,5.5,5.5,0,0,0,2.78.26,20.83,20.83,0,0,0,.9-2.19q-.36-.07-.72-.18a1.12,1.12,0,0,1-.66-.46,1.07,1.07,0,0,1-.14-.8,1,1,0,0,1,.46-.66,1.1,1.1,0,0,1,.79-.14l.86.21a13.07,13.07,0,0,0,.37-3.49l-.07,0a7.6,7.6,0,0,0-1.23.72,1.05,1.05,0,0,1-1.13-1.78Z" style="fill:#263238"></path><path d="M117,336.22a9.43,9.43,0,0,1,2-1.08,5.31,5.31,0,0,0-.79-1.46c-3.06-3.91-4.44,0-6.82.06a4,4,0,0,0-3,1.26,5.59,5.59,0,0,1,.87.38.77.77,0,0,1,.22,1.2,2.26,2.26,0,0,1-1.17.76,2.18,2.18,0,0,1-.44,0,7.53,7.53,0,0,0,.54,1.71,9.55,9.55,0,0,0,1.12,1.83,6.86,6.86,0,0,1,.78-.35.78.78,0,0,1,1,.71,3.51,3.51,0,0,1-.33,1.2,11.75,11.75,0,0,0,2,1.39l.22-.13c.16-.09.33-.17.5-.25a1.32,1.32,0,0,1,.3-.1.8.8,0,0,1,.74.16.79.79,0,0,1,.23.74,2,2,0,0,1-.14.41,5.5,5.5,0,0,0,2.78.26,20.83,20.83,0,0,0,.9-2.19q-.36-.07-.72-.18a1.12,1.12,0,0,1-.66-.46,1.07,1.07,0,0,1-.14-.8,1,1,0,0,1,.46-.66,1.1,1.1,0,0,1,.79-.14l.86.21a13.07,13.07,0,0,0,.37-3.49l-.07,0a7.6,7.6,0,0,0-1.23.72,1.05,1.05,0,0,1-1.13-1.78Z" style="fill:#fff;isolation:isolate;opacity:0.30000000000000004"></path><path d="M87.73,343.47c-.21,1.47,3.78,2.44,7,3-.27,2.67-2,5.37-4.5,7.89-3.08-1.74-7.49-4-8.3-3.48s3.63,3.53,6.45,5.25A59,59,0,0,1,82,361c-1.39-1.3-3-2.43-4-1.82s-.73,2.64-.24,4.42c-3.35,2-5.87,3.15-5.87,3.15a67.5,67.5,0,0,1-2.24-9.53c.17-.33.34-.67.49-1,.54-1.25,0-1.78-.88-2a33.52,33.52,0,0,1,0-6.86c3.8-.8,8.42-2.27,6.69-4.55-1-1.38-3-1.53-4.94-1.19a7.9,7.9,0,0,1,.93-1.28c6.92-7.62,11.74,0,11.74,0,4-3.35,9.66-2.44,10.88,2.79C92.31,342.52,88,341.66,87.73,343.47Z" style="fill:#263238"></path><path d="M87.73,343.47c-.21,1.47,3.78,2.44,7,3-.27,2.67-2,5.37-4.5,7.89-3.08-1.74-7.49-4-8.3-3.48s3.63,3.53,6.45,5.25A59,59,0,0,1,82,361c-1.39-1.3-3-2.43-4-1.82s-.73,2.64-.24,4.42c-3.35,2-5.87,3.15-5.87,3.15a67.5,67.5,0,0,1-2.24-9.53c.17-.33.34-.67.49-1,.54-1.25,0-1.78-.88-2a33.52,33.52,0,0,1,0-6.86c3.8-.8,8.42-2.27,6.69-4.55-1-1.38-3-1.53-4.94-1.19a7.9,7.9,0,0,1,.93-1.28c6.92-7.62,11.74,0,11.74,0,4-3.35,9.66-2.44,10.88,2.79C92.31,342.52,88,341.66,87.73,343.47Z" style="fill:#fff;isolation:isolate;opacity:0.5"></path></g><g id="freepik--Sign--inject-90"><polygon points="289.4 406.61 289.4 286.98 283.99 286.98 283.99 406.61 277.05 409.31 277.05 411.43 286.06 411.43 287.33 411.43 296.33 411.43 296.33 409.31 289.4 406.61" style="fill:#263238"></polygon><polygon points="389.46 406.61 389.46 286.98 384.05 286.98 384.05 406.61 377.12 409.31 377.12 411.43 386.12 411.43 387.39 411.43 396.4 411.43 396.4 409.31 389.46 406.61" style="fill:#263238"></polygon><polygon points="296.34 409.31 296.34 411.43 277.05 411.43 277.05 409.31 283.99 406.6 283.99 286.98 289.4 286.98 289.4 406.6 296.34 409.31" style="fill:#fff;opacity:0.5"></polygon><polygon points="396.4 409.31 396.4 411.43 377.12 411.43 377.12 409.31 384.05 406.6 384.05 286.98 389.46 286.98 389.46 406.6 396.4 409.31" style="fill:#fff;opacity:0.5"></polygon><polygon points="283.99 286.98 289.4 286.98 289.4 298.46 283.99 297.85 283.99 286.98" style="isolation:isolate;opacity:0.2"></polygon><polygon points="389.46 286.98 389.46 309.68 384.05 309.07 384.05 286.98 389.46 286.98" style="isolation:isolate;opacity:0.2"></polygon><rect x="267.59" y="177.52" width="138.27" height="116.73" style="fill:#263238"></rect><rect x="267.44" y="279.85" width="138.56" height="14.41" style="fill:#FFCC00"></rect><rect x="267.44" y="177.52" width="138.56" height="14.41" style="fill:#FFCC00"></rect><g style="opacity:0.7000000000000001"><polygon points="281.47 279.85 271.19 294.25 267.59 294.25 267.59 288.95 274.09 279.85 281.47 279.85" style="fill:#fff"></polygon><polygon points="285.43 294.25 278.04 294.25 288.33 279.85 295.71 279.85 285.43 294.25" style="fill:#fff"></polygon><polygon points="299.67 294.25 292.28 294.25 302.57 279.85 309.95 279.85 299.67 294.25" style="fill:#fff"></polygon><polygon points="313.91 294.25 306.52 294.25 316.81 279.85 324.19 279.85 313.91 294.25" style="fill:#fff"></polygon><polygon points="328.15 294.25 320.77 294.25 331.05 279.85 338.44 279.85 328.15 294.25" style="fill:#fff"></polygon><polygon points="342.39 294.25 335.01 294.25 345.29 279.85 352.68 279.85 342.39 294.25" style="fill:#fff"></polygon><polygon points="356.63 294.25 349.25 294.25 359.54 279.85 366.92 279.85 356.63 294.25" style="fill:#fff"></polygon><polygon points="370.88 294.25 363.49 294.25 373.78 279.85 381.16 279.85 370.88 294.25" style="fill:#fff"></polygon><polygon points="385.12 294.25 377.73 294.25 388.02 279.85 395.4 279.85 385.12 294.25" style="fill:#fff"></polygon><polygon points="405.86 279.85 405.86 285.15 399.36 294.25 391.98 294.25 402.26 279.85 405.86 279.85" style="fill:#fff"></polygon></g><g style="opacity:0.7000000000000001"><polygon points="281.47 177.52 271.19 191.93 267.59 191.93 267.59 186.62 274.09 177.52 281.47 177.52" style="fill:#fff"></polygon><polygon points="285.43 191.93 278.04 191.93 288.33 177.52 295.71 177.52 285.43 191.93" style="fill:#fff"></polygon><polygon points="299.67 191.93 292.28 191.93 302.57 177.52 309.95 177.52 299.67 191.93" style="fill:#fff"></polygon><polygon points="313.91 191.93 306.52 191.93 316.81 177.52 324.19 177.52 313.91 191.93" style="fill:#fff"></polygon><polygon points="328.15 191.93 320.77 191.93 331.05 177.52 338.44 177.52 328.15 191.93" style="fill:#fff"></polygon><polygon points="342.39 191.93 335.01 191.93 345.29 177.52 352.68 177.52 342.39 191.93" style="fill:#fff"></polygon><polygon points="356.63 191.93 349.25 191.93 359.54 177.52 366.92 177.52 356.63 191.93" style="fill:#fff"></polygon><polygon points="370.88 191.93 363.49 191.93 373.78 177.52 381.16 177.52 370.88 191.93" style="fill:#fff"></polygon><polygon points="385.12 191.93 377.73 191.93 388.02 177.52 395.4 177.52 385.12 191.93" style="fill:#fff"></polygon><polygon points="405.86 177.52 405.86 182.83 399.36 191.93 391.98 191.93 402.26 177.52 405.86 177.52" style="fill:#fff"></polygon></g><g style="opacity:0.6000000000000001"><path d="M319,252.83h-6.83v8.83h-5v-8.83h-20v-3.59l18.37-23.5h5.54l-17.6,22.68h13.8v-7.8h4.82v7.8H319Z" style="fill:#fff"></path><path d="M322.07,243.7c0-11.7,6.26-18.37,14.68-18.37s14.63,6.67,14.63,18.37-6.27,18.37-14.63,18.37S322.07,255.4,322.07,243.7Zm24.17,0c0-9.19-3.9-13.8-9.49-13.8s-9.54,4.61-9.54,13.8,3.9,13.8,9.54,13.8S346.24,252.88,346.24,243.7Z" style="fill:#fff"></path><path d="M387.55,252.83h-6.83v8.83h-5v-8.83h-20v-3.59l18.37-23.5h5.55l-17.6,22.68h13.8v-7.8h4.82v7.8h6.83Z" style="fill:#fff"></path></g><g style="opacity:0.6000000000000001"><path d="M319.68,209.77v1.79H312.2v-9.67h7.3v1.8h-5.08v2.1h4.49v1.74h-4.49v2.24Z" style="fill:#fff"></path><path d="M327.62,211.56l-1.87-2.69H323.7v2.69h-2.24v-9.67h4.18c2.59,0,4.2,1.34,4.2,3.51a3.14,3.14,0,0,1-2,3l2.17,3.11Zm-2.1-7.84H323.7v3.37h1.82c1.37,0,2.06-.64,2.06-1.69S326.89,203.72,325.52,203.72Z" style="fill:#fff"></path><path d="M337.76,211.56l-1.86-2.69h-2.06v2.69H331.6v-9.67h4.19c2.58,0,4.2,1.34,4.2,3.51a3.15,3.15,0,0,1-2,3l2.16,3.11Zm-2.1-7.84h-1.82v3.37h1.82c1.37,0,2.06-.64,2.06-1.69S337,203.72,335.66,203.72Z" style="fill:#fff"></path><path d="M341.14,206.73a5.3,5.3,0,1,1,5.29,5A5,5,0,0,1,341.14,206.73Zm8.31,0a3,3,0,1,0-3,3.09A2.95,2.95,0,0,0,349.45,206.73Z" style="fill:#fff"></path><path d="M359.56,211.56l-1.87-2.69h-2.06v2.69H353.4v-9.67h4.18c2.58,0,4.2,1.34,4.2,3.51a3.14,3.14,0,0,1-2,3l2.17,3.11Zm-2.1-7.84h-1.83v3.37h1.83c1.36,0,2.05-.64,2.05-1.69S358.82,203.72,357.46,203.72Z" style="fill:#fff"></path></g></g><g id="freepik--Hole--inject-90"><ellipse cx="355.75" cy="417.17" rx="58.58" ry="4.95" style="fill:#263238"></ellipse></g><g id="freepik--trafic-cone--inject-90"><polygon points="281.18 410.41 267.34 341.48 262.04 341.48 248.19 410.41 238.02 416.64 238.02 418.48 291.02 418.48 291.02 416.64 281.18 410.41" style="fill:#FFCC00"></polygon><rect x="238.02" y="416.64" width="53" height="2.32" style="fill:#fff;isolation:isolate;opacity:0.2"></rect><polygon points="267.34 341.48 262.04 341.48 248.03 410.21 281.01 410.21 267.34 341.48" style="fill:#fff;isolation:isolate;opacity:0.2"></polygon><polygon points="276.58 387.9 273.43 372.08 255.8 372.08 252.57 387.9 276.58 387.9" style="fill:#fff;isolation:isolate;opacity:0.6000000000000001"></polygon></g><g id="freepik--speech-bubble--inject-90"><path d="M166.44,129.24H123.71a8.84,8.84,0,0,0-8.85,8.84v15a8.85,8.85,0,0,0,8.85,8.85h28.4l13,13.89-7-13.89h8.38a8.85,8.85,0,0,0,8.85-8.85v-15A8.84,8.84,0,0,0,166.44,129.24Z" style="fill:#FFCC00"></path><path d="M166.44,129.24H123.71a8.84,8.84,0,0,0-8.85,8.84v15a8.85,8.85,0,0,0,8.85,8.85h28.4l13,13.89-7-13.89h8.38a8.85,8.85,0,0,0,8.85-8.85v-15A8.84,8.84,0,0,0,166.44,129.24Z" style="fill:#fff;opacity:0.7000000000000001"></path><path d="M125.8,144.76a5.07,5.07,0,1,1,5.08,4.88A4.85,4.85,0,0,1,125.8,144.76Zm8.77,0a3.71,3.71,0,1,0-3.69,3.66A3.59,3.59,0,0,0,134.57,144.76Z" style="fill:#FFCC00"></path><path d="M137.16,145.92a3.76,3.76,0,1,1,3.76,3.69A3.59,3.59,0,0,1,137.16,145.92Zm6.19,0a2.44,2.44,0,1,0-2.43,2.55A2.38,2.38,0,0,0,143.35,145.92Z" style="fill:#FFCC00"></path><path d="M154,145.92a3.51,3.51,0,0,1-3.65,3.69,3.1,3.1,0,0,1-2.52-1.17v3.73h-1.31v-9.86h1.25v1.14a3.09,3.09,0,0,1,2.58-1.21A3.5,3.5,0,0,1,154,145.92Zm-1.32,0a2.44,2.44,0,1,0-2.44,2.55A2.39,2.39,0,0,0,152.64,145.92Z" style="fill:#FFCC00"></path><path d="M154.86,148.77l.54-1a4.65,4.65,0,0,0,2.54.75c1.21,0,1.71-.37,1.71-1,0-1.62-4.56-.22-4.56-3.1,0-1.29,1.16-2.16,3-2.16a5.25,5.25,0,0,1,2.63.65l-.56,1a3.76,3.76,0,0,0-2.08-.57c-1.15,0-1.71.42-1.71,1,0,1.7,4.58.31,4.58,3.12,0,1.31-1.2,2.14-3.12,2.14A5.25,5.25,0,0,1,154.86,148.77Z" style="fill:#FFCC00"></path><path d="M162.3,148.74a.87.87,0,0,1,.9-.87.85.85,0,0,1,.87.87.86.86,0,0,1-.87.87A.88.88,0,0,1,162.3,148.74Zm.12-8.75H164l-.26,6.53h-1Z" style="fill:#FFCC00"></path></g><g id="freepik--Character--inject-90"><g id="freepik--group--inject-90"><polygon points="107.22 411.48 113.64 415.18 122.73 400.61 116.3 396.92 107.22 411.48" style="fill:#ffb573"></polygon><polygon points="116.3 396.92 122.72 400.62 118.03 408.13 111.61 404.43 116.3 396.92" style="isolation:isolate;opacity:0.2"></polygon><path d="M115.52,410.53h-9a.65.65,0,0,0-.63.51l-1.46,6.59a1.11,1.11,0,0,0,.85,1.3l.24,0c2.91-.05,5-.22,8.68-.22,2.25,0,9,.23,12.15.23s3.52-3.07,2.25-3.35c-5.71-1.25-10-3-11.84-4.61A1.76,1.76,0,0,0,115.52,410.53Z" style="fill:#263238"></path><path d="M116,411.56a.18.18,0,0,1-.13-.15.16.16,0,0,1,.08-.17c.27-.17,2.66-1.64,3.48-1.22a.53.53,0,0,1,.3.49,1,1,0,0,1-.37.94,2.19,2.19,0,0,1-1.42.38A9,9,0,0,1,116,411.56Zm.51-.25a3.6,3.6,0,0,0,2.64-.13.75.75,0,0,0,.23-.63c0-.14-.07-.21-.11-.21a.46.46,0,0,0-.23,0A7.25,7.25,0,0,0,116.54,411.31Z" style="fill:#FFCC00"></path><path d="M116,411.59a.18.18,0,0,1-.08-.16c0-.1.19-2.23,1-2.93a1,1,0,0,1,.75-.22.57.57,0,0,1,.56.46c.15.78-1.33,2.41-2.09,2.83h-.08Zm1.19-2.88a4.2,4.2,0,0,0-.88,2.32c.77-.58,1.71-1.81,1.61-2.29,0-.05,0-.18-.25-.18h-.09A.63.63,0,0,0,117.17,408.71Z" style="fill:#FFCC00"></path><polygon points="210.79 413.2 218.42 412.32 216.22 395.92 208.58 396.8 210.79 413.2" style="fill:#ffb573"></polygon><polygon points="208.58 396.8 216.22 395.92 217.35 404.38 209.72 405.26 208.58 396.8" style="isolation:isolate;opacity:0.2"></polygon><path d="M218.59,410.53h-9a.64.64,0,0,0-.63.51l-1.46,6.59a1.09,1.09,0,0,0,.84,1.3l.24,0c2.91-.05,5-.22,8.69-.22,2.25,0,9,.23,12.15.23s3.51-3.07,2.24-3.35c-5.71-1.25-10-3-11.83-4.61A1.8,1.8,0,0,0,218.59,410.53Z" style="fill:#263238"></path><path d="M219.09,411.56a.18.18,0,0,1-.13-.15.15.15,0,0,1,.09-.17c.26-.17,2.65-1.64,3.47-1.22a.52.52,0,0,1,.3.49,1,1,0,0,1-.36.94,2.2,2.2,0,0,1-1.43.38A9.16,9.16,0,0,1,219.09,411.56Zm.51-.25a3.6,3.6,0,0,0,2.64-.13.73.73,0,0,0,.24-.63c0-.14-.07-.21-.12-.21a.42.42,0,0,0-.22,0A7.22,7.22,0,0,0,219.6,411.31Z" style="fill:#FFCC00"></path><path d="M219.05,411.59a.17.17,0,0,1-.09-.16c0-.1.19-2.23,1-2.93a.94.94,0,0,1,.74-.22.58.58,0,0,1,.57.46c.15.78-1.33,2.41-2.09,2.83h-.09Zm1.18-2.88a4.19,4.19,0,0,0-.87,2.32c.76-.58,1.7-1.81,1.61-2.29,0-.05,0-.18-.26-.18h-.08A.64.64,0,0,0,220.23,408.71Z" style="fill:#FFCC00"></path><path d="M218.32,401l-12.82-3.06s-9.29-67.28-31.14-97.77a45.43,45.43,0,0,0-9.19-9.82c-1.36,16.9-3,34.88-4.35,44.45-3.42,23.55-36.55,68.92-36.55,68.92l-11.6-4.87s26.63-49.3,27.91-72.45c1.4-25.13,2-69.21,2.06-74.37H182C185.68,272.42,213.78,319.08,218.32,401Z" style="fill:#263238"></path><path d="M218.32,401l-12.82-3.06s-9.29-67.28-31.14-97.77a45.43,45.43,0,0,0-9.19-9.82c-1.36,16.9-3,34.88-4.35,44.45-3.42,23.55-36.55,68.92-36.55,68.92l-11.6-4.87s26.63-49.3,27.91-72.45c1.4-25.13,2-69.21,2.06-74.37H182C185.68,272.42,213.78,319.08,218.32,401Z" style="fill:#fff;opacity:0.30000000000000004"></path><path d="M205.64,208.64c-.06,12.06-.54,24.11-1.16,36.15l-.09-1c.85,5.39,1.6,10.8,2.31,16.21s1.3,10.86,1.75,16.32l-5.17,1c-3.19-10.46-5.83-21.07-8.3-31.71-.41-12.37-.27-24.78,0-37.16l10.62.19Z" style="fill:#ffb573"></path><path d="M204.87,205.5c3.23,2-.53,23.1.25,38.93a34.69,34.69,0,0,0,.75,4.72L195,250.37a61.85,61.85,0,0,1-1.54-7.69c-.53-7.38,0-28.25,0-28.25Z" style="fill:#FFCC00"></path><path d="M205.12,244.43a34.69,34.69,0,0,0,.75,4.72L195,250.37a62.45,62.45,0,0,1-1.53-7.69c-.14-1.9-.21-4.7-.23-7.8,0-4.68,0-10.06.1-14.12,0,0,0,0,0,0,.06-3.71.13-6.32.13-6.32l11.41-8.93C208.09,207.51,204.34,228.6,205.12,244.43Z" style="fill:#fff;opacity:0.7000000000000001"></path><path d="M208.29,274.89l2.07,10.16-9.06.37s-2.44-6.9,2.13-10.85Z" style="fill:#ffb573"></path><polygon points="208.27 292.13 201.45 290.79 201.3 285.42 210.36 285.05 208.27 292.13" style="fill:#ffb573"></polygon><polygon points="194.05 248.55 205.87 246.68 206.2 249.94 194.84 251.13 194.05 248.55" style="fill:#FFCC00"></polygon><polygon points="194.05 248.55 205.87 246.68 206.2 249.94 194.84 251.13 194.05 248.55" style="fill:#fff;opacity:0.6000000000000001"></polygon><path d="M193.23,234.88c0-4.68,0-10.06.1-14.12,0,0,0,0,0,0a18.52,18.52,0,0,1,3.39-5.16A29.07,29.07,0,0,1,193.23,234.88Z" style="isolation:isolate;opacity:0.1"></path><polygon points="219.98 403.23 203.51 400.78 204.02 396.22 221.15 398.47 219.98 403.23" style="fill:#263238"></polygon><polygon points="125.21 406.56 110.36 400.66 112.13 396.22 127.65 402.06 125.21 406.56" style="fill:#263238"></polygon><path d="M174.36,300.15a45.43,45.43,0,0,0-9.19-9.82l1.09-14S173.07,287.51,174.36,300.15Z" style="isolation:isolate;opacity:0.30000000000000004"></path><path d="M204.87,205.5c-14.82,24.59-21.4,54.72-21.4,54.72l-7.24,12.43-5-14-1.23-.18-1.8-.27-1.84-.28-3.78-.6-1.91-.32c-.64-.1-1.27-.21-1.91-.33l-1.89-.34-1.87-.35c-1.71-.33-3.38-.67-5-1l-.84-.19c-1.16-.27-2.27-.54-3.3-.82s-2-.56-2.81-.84l-.62-.21a155.06,155.06,0,0,1,7.12-29.39c.5-1.43,1-2.8,1.53-4.13a117.5,117.5,0,0,1,6.8-14.55l.16-.29c4.6-8.24,13.92-11.83,19.52-10.41a145.85,145.85,0,0,1,15.58,5.52A102.42,102.42,0,0,1,204.87,205.5Z" style="fill:#FFCC00"></path><path d="M204.87,205.5c-14.82,24.59-21.4,54.72-21.4,54.72l-7.24,12.43-5-14-1.23-.18-1.8-.27-1.84-.28-3.78-.6-1.91-.32c-.64-.1-1.27-.21-1.91-.33l-1.89-.34-1.87-.35c-1.71-.33-3.38-.67-5-1l-.84-.19c-1.16-.27-2.27-.54-3.3-.82s-2-.55-2.81-.84l-.62-.21a155.06,155.06,0,0,1,7.12-29.39c.5-1.43,1-2.8,1.53-4.13a117.5,117.5,0,0,1,6.8-14.55l.16-.29c4.6-8.24,13.92-11.83,19.52-10.41a145.85,145.85,0,0,1,15.58,5.52A102.42,102.42,0,0,1,204.87,205.5Z" style="fill:#fff;opacity:0.7000000000000001"></path><path d="M181.09,222.68s-.42,2.24-.93,5.4a52.87,52.87,0,0,1-3,10.2c-.8,1.63-4.09,8.13-3.46,11s-2.46,9.3-2.46,9.3l-1.23-.18c.76-3.55,3.31-15,4.69-16.37,1.63-1.58,4.17-8.57,3.64-11.2S181.09,222.68,181.09,222.68Z" style="isolation:isolate;opacity:0.1"></path><path d="M170.26,274.89l2.08,10.16-9.06.37s-2.45-6.9,2.12-10.85Z" style="fill:#ffb573"></path><polygon points="170.25 292.13 163.43 290.79 163.28 285.42 172.34 285.05 170.25 292.13" style="fill:#ffb573"></polygon><path d="M176,194.59c1,2.83,9,13,9,13l7-8a5.5,5.5,0,0,1-1.28-1.62,3.89,3.89,0,0,1,.28-4.13,6.7,6.7,0,0,1,1.28-1.27,1.92,1.92,0,0,0,.22-.18L189,179.27C186.82,184.34,181.17,193.76,176,194.59Z" style="fill:#ffb573"></path><path d="M190.76,198a3.89,3.89,0,0,1,.28-4.13,6.7,6.7,0,0,1,1.28-1.27l-5.23-9.16C183.8,190.71,188,195.79,190.76,198Z" style="isolation:isolate;opacity:0.2"></path><path d="M203.66,168.21s2.84,9.92-2,14.51-7.3-14.26-7.3-14.26Z" style="fill:#ffb573"></path><path d="M203.66,168.21s2.84,9.92-2,14.51-7.3-14.26-7.3-14.26Z" style="isolation:isolate;opacity:0.4"></path><path d="M187.08,192.77a9.24,9.24,0,0,0,11,2.2,10.28,10.28,0,0,0,5.23-5.51,10.39,10.39,0,0,0,.36-1c1.85-6.53.87-21.91-5.77-20.66-5.44,1-11-.14-13.31,4.88a9.78,9.78,0,0,0-.93,4.58C183.78,184.56,183.52,188.88,187.08,192.77Z" style="fill:#ffb573"></path><path d="M199.29,180.22a21,21,0,0,0,2.64,5.22,3.47,3.47,0,0,1-2.89.42Z" style="fill:#ed893e"></path><path d="M196.87,175a.38.38,0,0,0-.35.11,2.79,2.79,0,0,1-2.33,1,.35.35,0,0,0-.39.3.34.34,0,0,0,.29.39h0a3.47,3.47,0,0,0,2.95-1.22.35.35,0,0,0,0-.49h0Z" style="fill:#263238"></path><path d="M201.29,174.57a.3.3,0,0,0-.21,0,.35.35,0,0,0-.11.48h0a3.47,3.47,0,0,0,2.74,1.66.35.35,0,0,0,.36-.34h0a.37.37,0,0,0-.35-.36h0a2.81,2.81,0,0,1-2.15-1.34A.34.34,0,0,0,201.29,174.57Z" style="fill:#263238"></path><path d="M185,182.33c-.7.2-.74,3.33,0,6.17l-1.24.35a19.81,19.81,0,0,1-3-6.51c-1.57-5.94-1.79-9.79-1.22-12.76l9.85-1.27.41,3.23a2.42,2.42,0,0,0-1.19,3c1.07,2.71-.45,6.94-2.52,8.64C186.11,183.22,186,182,185,182.33Z" style="fill:#ffb573"></path><path d="M185,182.33c-.7.2-.74,3.33,0,6.17l-1.24.35a19.81,19.81,0,0,1-3-6.51c-1.57-5.94-1.79-9.79-1.22-12.76l9.85-1.27.41,3.23a2.42,2.42,0,0,0-1.19,3c1.07,2.71-.45,6.94-2.52,8.64C186.11,183.22,186,182,185,182.33Z" style="isolation:isolate;opacity:0.4"></path><path d="M180.21,183.11a7,7,0,0,0,3.85,3.69c2.29.87,3.66-1.12,3.21-3.4-.41-2-2.08-5-4.47-4.85A3.12,3.12,0,0,0,180.21,183.11Z" style="fill:#ffb573"></path><path d="M181.51,166.63s-1.19-2.06,1.41-4.51,13.5-3.45,16.76-1.43,5.93.53,5.76-.8a2.45,2.45,0,0,1,.18,2.83s2.09-.11,3.11,3a2.61,2.61,0,0,0-2.16.61,3.29,3.29,0,0,1,.86,3,4,4,0,0,0-2.38-1.17,6.87,6.87,0,0,0,1.21,2.12s-4.32.48-6.56-1.16a6.34,6.34,0,0,0,1.72,1.9s-7,1.3-9.34-1.48a4.19,4.19,0,0,0-.69,3.42,4.21,4.21,0,0,1-3.17-1.3,11.22,11.22,0,0,1-5.94,2.49,7.75,7.75,0,0,0,1-1.37s-3.6,2.11-6,.51a4.38,4.38,0,0,0,.6-1.68l-.94.47S176.9,166.83,181.51,166.63Z" style="fill:#263238"></path><path d="M194.34,182.47a4.29,4.29,0,0,1-.68.14.18.18,0,0,1-.19-.16.17.17,0,0,1,.15-.19,2.67,2.67,0,0,0,2.56-1.94.17.17,0,0,1,.2-.15.17.17,0,0,1,.14.2A2.89,2.89,0,0,1,194.34,182.47Z" style="fill:#ed893e"></path><path d="M203,182.41H203c-1.26-.16-1.83-1.84-1.86-1.91a.17.17,0,0,1,.11-.22.19.19,0,0,1,.23.11s.52,1.54,1.56,1.67a.18.18,0,0,1,.15.19A.17.17,0,0,1,203,182.41Z" style="fill:#ed893e"></path><path d="M194.7,179.73c-.07.59.26,1.09.66,1.11s.72-.46.75-1.05-.28-1.1-.66-1.11S194.72,179.13,194.7,179.73Z" style="fill:#263238"></path><path d="M201.44,180c-.06.59.28,1.09.67,1.11s.72-.46.75-1.06-.28-1.09-.67-1.1S201.47,179.44,201.44,180Z" style="fill:#263238"></path><path d="M194.07,179.76a5.31,5.31,0,0,0,2.46-.49c.72-.54-.61-1.07-1.26-1.07S193.63,179.24,194.07,179.76Z" style="fill:#ffb573"></path><path d="M201.11,179.64a5.19,5.19,0,0,0,2.48.31c.86-.28-.23-1.2-.85-1.41S200.86,179,201.11,179.64Z" style="fill:#ffb573"></path><path d="M199.58,190.53s-.88.36-2,.73c-2,.67-4.89,1.37-5.06.15a1.2,1.2,0,0,1,.25-.94c.86-1.18,3.73-1.61,5.63-1.81a3.15,3.15,0,0,0,.27.94A2.49,2.49,0,0,0,199.58,190.53Z" style="fill:#263238"></path><path d="M197.57,191.26c-2,.67-4.89,1.37-5.06.15a1.2,1.2,0,0,1,.25-.94C194.46,190.35,196.77,190.37,197.57,191.26Z" style="fill:#a02724"></path><path d="M190.34,178.2s1,2.64,0,2.64S190.34,178.2,190.34,178.2Z" style="fill:#fff"></path><path d="M188.64,180.48s1,2.64,0,2.64S188.64,180.48,188.64,180.48Z" style="fill:#fff"></path><path d="M202.2,172s1.59,2.35.58,2.57S202.2,172,202.2,172Z" style="fill:#fff"></path><path d="M203.24,184.68s.92,2.69-.12,2.64S203.24,184.68,203.24,184.68Z" style="fill:#fff"></path><path d="M174.65,192.61s5,15,8.07,20.7l.66-.7s-5.54-15.78-6.39-20Z" style="fill:#FFCC00"></path><path d="M190.38,199.89a29.61,29.61,0,0,1-4,13.42v1.12s4-3.36,5.18-13.35Z" style="fill:#FFCC00"></path><path d="M182.21,213l1-1.75c1.8,2.3,3.33,1.06,3.33,1.06l.66,1.4-1.74,4.81h-1.8Z" style="fill:#FFCC00"></path><path d="M185.35,216.11s-.68,16.22,0,25.62c.43,6,.89,16.81.59,19.68l-2.71,2.08-2.13-3.27s1.68-4.45.89-15.72,2.1-28,2.1-28Z" style="fill:#FFCC00"></path><polygon points="171.28 193.51 176.68 190.65 184.05 197.49 184.4 206.37 189.66 199.16 192.88 197.52 195.21 201.43 192.27 206.13 190.38 203.7 184.06 209.07 179.4 201.66 176.27 203.36 171.28 193.51" style="fill:#FFCC00"></polygon><polygon points="171.28 193.51 176.68 190.65 184.05 197.49 184.4 206.37 189.66 199.16 192.88 197.52 195.21 201.43 192.27 206.13 190.38 203.7 184.06 209.07 179.4 201.66 176.27 203.36 171.28 193.51" style="fill:#fff;opacity:0.6000000000000001"></polygon><polygon points="184.06 209.07 189.83 201.68 192.27 206.13 190.38 203.7 184.06 209.07" style="opacity:0.1"></polygon><polygon points="184.06 209.07 181.43 199.52 176.27 203.36 179.4 201.66 184.06 209.07" style="opacity:0.1"></polygon><path d="M167.84,252l-9.2,1s-9.84-14.93-9.08-29.53c.5-1.43,1-2.8,1.53-4.13a117.5,117.5,0,0,1,6.8-14.55,16.39,16.39,0,0,1,2.34-1.83l9.51,14.18S170.35,240.25,167.84,252Z" style="isolation:isolate;opacity:0.1"></path><path d="M167.61,208.64c-.06,12.06-.53,24.11-1.16,36.15l-.08-1q1.26,8.08,2.3,16.21c.69,5.43,1.31,10.86,1.75,16.32l-5.16,1c-3.2-10.46-5.84-21.07-8.3-31.71-.41-12.37-.27-24.78,0-37.16l10.61.19Z" style="fill:#ffb573"></path><path d="M163.26,200.65c5.14,2.24,6.7,10.57,6.7,10.57s-2.61,31.89-2.48,33.21.36,3.83.36,3.83l-11,2.11s-.92-5.94-1.45-18.07,0-22.24,2.5-26.71S163.26,200.65,163.26,200.65Z" style="fill:#FFCC00"></path><path d="M163.26,200.65c5.14,2.24,6.7,10.57,6.7,10.57s-2.61,31.89-2.48,33.21.36,3.83.36,3.83l-11,2.11s-.92-5.94-1.45-18.07,0-22.24,2.5-26.71S163.26,200.65,163.26,200.65Z" style="fill:#fff;opacity:0.7000000000000001"></path><polygon points="155.16 248.52 168.67 246.28 167.84 249.71 156.67 252.01 155.16 248.52" style="fill:#FFCC00"></polygon><polygon points="155.16 248.52 168.67 246.28 167.84 249.71 156.67 252.01 155.16 248.52" style="fill:#fff;opacity:0.6000000000000001"></polygon><path d="M228.33,298.23,226.14,330a2,2,0,0,1-2.15,1.77l-41.08-2.26a2,2,0,0,1-1.9-2l2.19-31.76a2,2,0,0,1,2.15-1.77l41.09,2.26A1.94,1.94,0,0,1,228.33,298.23Z" style="fill:#263238"></path><path d="M207,325.63l18.47-3.31s9.35,18,14.84,22.9l-20.51,7.58S210.09,341.14,207,325.63Z" style="fill:#FFCC00"></path><path d="M207,325.63l18.47-3.31s9.35,18,14.84,22.9l-20.51,7.58S210.09,341.14,207,325.63Z" style="fill:#fff;opacity:0.7000000000000001"></path><path d="M206.53,308.31c3.46,2.07,13.75,18.59,13.75,18.59L241.84,315s-11-10.32-14.44-11.61S206.53,308.31,206.53,308.31Z" style="fill:#FFCC00"></path><path d="M206.23,308.31c3.52,2.07,14,18.59,14,18.59L242.13,315S231,304.65,227.45,303.36,206.23,308.31,206.23,308.31Z" style="fill:#fff;opacity:0.6000000000000001"></path><path d="M193.22,302.76s4.06,9.38,5,18l28.36-5s-4.2-11.1-6-13S193.22,302.76,193.22,302.76Z" style="fill:#FFCC00"></path><path d="M193.22,302.76s4.06,9.38,5,18l28.36-5s-4.2-11.1-6-13S193.22,302.76,193.22,302.76Z" style="fill:#fff;opacity:0.7000000000000001"></path><path d="M215.39,296.66c-1.1-4.87-7-9-11.65-9.73-3.38-.51-6.16,6.12-7,8.71l-1.17-.35c.13-.42,3.2-10.33,8.3-9.57s11.44,5.25,12.66,10.67Z" style="fill:#263238"></path><path d="M186.75,294.06a2.63,2.63,0,0,1,2.25,2l2.75,14.39a2.09,2.09,0,0,0,1.88,1.56l37,2a1.15,1.15,0,0,0,1.33-1.37l-2.76-14.44a2.63,2.63,0,0,0-2.35-1.95L185.8,294Z" style="fill:#263238"></path><path d="M186.75,294.06a2.63,2.63,0,0,1,2.25,2l2.75,14.39a2.09,2.09,0,0,0,1.88,1.56l37,2a1.15,1.15,0,0,0,1.33-1.37l-2.76-14.44a2.63,2.63,0,0,0-2.35-1.95L185.8,294Z" style="fill:#fff;opacity:0.1"></path><path d="M216.46,316.91h-.05l-2.75-.16a1.25,1.25,0,0,1-1.06-.9l-.45-1.74a.75.75,0,0,1,.13-.69.67.67,0,0,1,.6-.24l2.75.16a1.24,1.24,0,0,1,1.06.89l.45,1.75a.73.73,0,0,1-.13.68A.69.69,0,0,1,216.46,316.91Zm0-.46a.25.25,0,0,0,.22-.08.32.32,0,0,0,0-.28l-.45-1.74a.79.79,0,0,0-.65-.56l-2.75-.16a.28.28,0,0,0-.22.08.33.33,0,0,0,0,.28l.46,1.75a.76.76,0,0,0,.64.55Z" style="fill:#263238"></path><g style="opacity:0.5"><path d="M216.46,316.91h-.05l-2.75-.16a1.25,1.25,0,0,1-1.06-.9l-.45-1.74a.75.75,0,0,1,.13-.69.67.67,0,0,1,.6-.24l2.75.16a1.24,1.24,0,0,1,1.06.89l.45,1.75a.73.73,0,0,1-.13.68A.69.69,0,0,1,216.46,316.91Zm0-.46a.25.25,0,0,0,.22-.08.32.32,0,0,0,0-.28l-.45-1.74a.79.79,0,0,0-.65-.56l-2.75-.16a.28.28,0,0,0-.22.08.33.33,0,0,0,0,.28l.46,1.75a.76.76,0,0,0,.64.55Z" style="fill:#fff"></path></g></g></g></svg>